<?xml version="1.0" encoding="utf-8"?>
<svg viewBox="0 0 200 80" xmlns="http://www.w3.org/2000/svg">
  <defs/>
  <g transform="matrix(0.160412, 0, 0, 0.160412, 24.378603, 2.534971)" style="">
    <defs/>
    <g transform="matrix(.06686,0,0,-.06686,0,468)">
      <path d="M 443.736 -6059.553 L 13705.093 -4930.117 L 13837.053 -1152.072 L 2665.593 -1355.304 L 2213.056 -717.822 L 1278.435 -399.208 L 559.186 -1710.283 L 443.736 -6059.553 Z" style="stroke: rgb(0, 0, 0); fill: rgb(255, 255, 255); pointer-events: none;" transform="matrix(1, 0, 0, -1, 0, 0)"/>
      <path d="M 550 6773 C 357 6740 139 6606 111 6504 C 103 6476 100 5827 100 4277 C 100 2343 102 2084 115 2057 C 145 1994 261 1851 459 1631 C 608 1465 660 1400 660 1382 C 660 1363 635 1333 566 1265 C 514 1214 465 1159 457 1143 C 387 1008 481 807 730 560 C 856 435 980 344 1110 281 L 1205 235 L 1335 236 C 1614 239 1885 336 2150 528 C 2341 666 2555 924 2674 1158 L 2700 1210 L 4618 1212 L 13641.7 854.67 L 13686.7 878.67 C 13795.7 936.67 13919.7 1092.67 13972.7 1236.67 L 14001.7 1314.67 L 14001.7 4804.67 L 13964.7 4879.67 C 13908.7 4994.67 13817.7 5110.67 13657.7 5270.67 C 13455.7 5471.67 13220.7 5644.67 13064.7 5705.67 C 13010.7 5726.67 5531 6139 3375 6426 C 1989 6610 824 6765 785 6770 C 714 6779 596 6781 550 6773 Z M 3608 5650 C 6553 5259 13487.7 4922.67 13554.7 4897.67 C 13661.7 4857.67 13707.7 4790.67 13726.7 4648.67 C 13733.7 4589.67 13736.7 4089.67 13734.7 3004.67 L 13731.7 1444.67 L 13703.7 1364.67 C 13669.7 1268.67 13617.7 1185.67 13573.7 1159.67 C 13542.7 1139.67 6404 1500 4483 1500 L 2530 1500 L 2485 1411 C 2392 1224 2291 1067 2191 950 C 2026 758 1847 631 1675 585 C 1608 567 1365 552 1372 566 C 1374 571 1407 638 1444 715 C 1573 979 1590 1048 1590 1300 C 1590 1455 1588 1470 1573 1470 C 1547 1471 1376 1487 1200 1505 C 1023 1524 973 1541 914 1601 L 875 1641 L 872 3731 L 870 5821 L 912 5861 C 974 5919 1069 5980 1096 5980 C 1109 5980 2239 5831 3608 5650 Z" style="pointer-events: none;"/>
    </g>
  </g>
</svg>