<?xml version="1.0" encoding="utf-8"?>
<svg viewBox="0 0 50 50" xmlns="http://www.w3.org/2000/svg">
  <defs/>
  <rect width="50" height="50" style="fill: rgb(12, 33, 51);">
    <title>background</title>
  </rect>
  <g style="pointer-events: none; visibility: hidden;" transform="matrix(1, 0, 0, 1, -16.603003, -17.980999)">
    <title>Users</title>
    <path d="M 44.391 32.319 C 44.391 29.852 46.759 27.857 49.698 27.857 C 52.637 27.857 55.013 29.852 55.013 32.319" stroke="#FF4438" stroke-width="1.5625" stroke-miterlimit="10" style="fill: none;"/>
    <path d="M 44.375 38.678 C 44.375 41.145 46.759 43.141 49.69 43.141 C 52.623 43.141 55.006 41.145 55.006 38.678" stroke="#FF4438" stroke-width="1.5625" stroke-miterlimit="10" style="fill: none;"/>
    <path d="M 44.391 32.319 L 44.375 38.678" stroke="#FF4438" stroke-width="1.5625" stroke-miterlimit="10" style=""/>
    <path d="M 55.014 32.312 L 55.006 38.686" stroke="#FF4438" stroke-width="1.5625" stroke-miterlimit="10" style=""/>
    <path d="M 40.963 54.784 C 40.963 51.35 36.013 48.57 29.906 48.57 C 23.798 48.57 18.849 51.35 18.849 54.784 L 18.849 58.105 L 40.971 58.105 L 40.971 54.784 L 40.963 54.784 Z" stroke-width="1.5625" stroke-miterlimit="10" style="stroke: rgb(220, 255, 30); fill: rgb(12, 33, 51);"/>
    <path d="M 64.357 53.97 C 64.357 49.69 57.846 46.225 49.812 46.225 C 41.778 46.225 35.268 49.69 35.268 53.97 L 35.268 58.105 L 64.349 58.105 L 64.349 53.97 L 64.357 53.97 Z" stroke="#FF4438" stroke-width="1.5625" stroke-miterlimit="10" style="fill: rgb(12, 33, 51);"/>
    <path d="M 25.741 36.927 C 25.741 34.993 27.599 33.424 29.899 33.424 C 32.198 33.424 34.064 34.985 34.064 36.927" stroke-width="1.5625" stroke-miterlimit="10" style="fill: none; stroke: rgb(220, 255, 30);"/>
    <path d="M 25.733 41.915 C 25.733 43.849 27.599 45.418 29.899 45.418 C 32.198 45.418 34.064 43.857 34.064 41.915" stroke-width="1.5625" stroke-miterlimit="10" style="fill: none; stroke: rgb(220, 255, 30);"/>
    <path d="M 25.741 36.927 L 25.733 41.914" stroke-width="1.5625" stroke-miterlimit="10" style="stroke: rgb(220, 255, 30);"/>
    <path d="M 34.072 36.919 L 34.064 41.915" stroke-width="1.5625" stroke-miterlimit="10" style="stroke: rgb(220, 255, 30);"/>
  </g>
  <g transform="matrix(1, 0, 0, 1, -12.019, -72.759499)" style="pointer-events: none; visibility: hidden;">
    <title>ClientApp</title>
    <path d="M 60.97 105.305 L 13.068 105.305" stroke="white" stroke-width="1.5625" stroke-miterlimit="10" style=""/>
    <path d="M 25.524 117.401 C 26.434 116.484 30.162 112.959 36.064 112.613 C 43.141 112.199 47.793 116.681 48.52 117.401" stroke="white" stroke-width="1.5625" stroke-miterlimit="10" style="fill: none;"/>
    <path d="M 34.048 87.239 L 28.865 100.599" stroke="white" stroke-width="1.5625" stroke-miterlimit="10" style=""/>
    <path d="M 36.309 99.878 C 37.668 99.878 38.802 98.744 38.802 97.386 L 38.802 95.423 C 38.802 94.445 39.556 93.691 40.534 93.691 C 39.556 93.684 38.802 92.93 38.802 91.946 L 38.802 89.983 C 38.802 88.625 37.668 87.49 36.309 87.49" stroke="white" stroke-width="1.5625" stroke-miterlimit="10" style="fill: none;"/>
    <path d="M 26.604 87.497 C 25.245 87.497 24.111 88.632 24.111 89.99 L 24.111 91.953 C 24.111 92.93 23.357 93.684 22.38 93.684 C 23.357 93.691 24.111 94.445 24.111 95.43 L 24.111 97.393 C 24.111 98.751 25.245 99.885 26.604 99.885" stroke="white" stroke-width="1.5625" stroke-miterlimit="10" style="fill: none;"/>
    <path d="M 59.625 78.118 L 14.413 78.118 C 13.67 78.118 13.068 78.722 13.068 79.468 L 13.068 109.305 C 13.068 110.05 13.67 110.655 14.413 110.655 L 59.625 110.655 C 60.368 110.655 60.97 110.05 60.97 109.305 L 60.97 79.468 C 60.97 78.722 60.368 78.118 59.625 78.118 Z" stroke-width="1.5625" stroke-miterlimit="10" style="fill: none; stroke: rgb(220, 255, 30);"/>
  </g>
  <g transform="matrix(1, 0, 0, 1, -73.455994, -131.371002)" style="pointer-events: none;">
    <title>LDAP</title>
    <path class="st0" d="M 100.156 140.821 L 111.656 147.521 C 112.556 148.021 113.056 148.921 113.056 149.921 L 113.056 163.321 C 113.056 164.321 112.556 165.221 111.656 165.721 L 100.056 172.421 C 99.156 172.921 98.156 172.921 97.256 172.421 L 85.756 165.721 C 84.856 165.221 84.356 164.321 84.356 163.321 L 84.356 149.921 C 84.356 148.921 84.856 148.021 85.756 147.521 L 97.356 140.821 C 98.256 140.421 99.256 140.421 100.156 140.821 Z" style="stroke: rgb(255, 68, 56); fill: none; stroke-miterlimit: 10;"/>
    <path class="st0" d="M 98.456 156.021 C 96.656 156.021 95.256 154.621 95.256 152.821 L 95.256 150.421 C 95.256 148.621 96.656 147.221 98.456 147.221 C 100.256 147.221 101.656 148.621 101.656 150.421 L 101.656 152.821 C 101.656 154.521 100.256 156.021 98.456 156.021 Z M 106.656 164.521 L 106.656 162.321 C 106.656 159.921 102.956 157.921 98.456 157.921 C 93.956 157.921 90.256 159.921 90.256 162.321 L 90.256 164.521" style="fill: none; stroke-miterlimit: 10; stroke: rgb(255, 255, 255);"/>
    <circle class="st1" cx="98.656" cy="140.421" r="2.3" style="fill: rgb(255, 255, 255);"/>
    <circle class="st2" cx="98.656" cy="172.321" r="2.3" style="fill: rgb(12, 33, 51);"/>
    <path class="st1" d="M 98.656 171.221 C 99.256 171.221 99.756 171.721 99.756 172.321 C 99.756 172.921 99.256 173.421 98.656 173.421 C 98.056 173.421 97.556 172.921 97.556 172.321 C 97.556 171.721 98.056 171.221 98.656 171.221 M 98.656 170.021 C 97.356 170.021 96.356 171.021 96.356 172.321 C 96.356 173.621 97.356 174.621 98.656 174.621 C 99.956 174.621 100.956 173.621 100.956 172.321 C 100.956 171.021 99.956 170.021 98.656 170.021 Z" style="fill: rgb(220, 255, 30);"/>
    <circle class="st2" cx="84.456" cy="148.321" r="2.3" style="fill: rgb(12, 33, 51);"/>
    <path class="st1" d="M 84.456 147.121 C 85.056 147.121 85.556 147.621 85.556 148.221 C 85.556 148.821 85.056 149.321 84.456 149.321 C 83.856 149.321 83.356 148.821 83.356 148.221 C 83.356 147.621 83.856 147.121 84.456 147.121 M 84.456 146.021 C 83.156 146.021 82.156 147.021 82.156 148.321 C 82.156 149.621 83.156 150.621 84.456 150.621 C 85.756 150.621 86.756 149.621 86.756 148.321 C 86.756 147.021 85.756 146.021 84.456 146.021 Z" style="fill: rgb(220, 255, 30);"/>
    <circle class="st2" cx="112.456" cy="148.321" r="2.3" style="fill: rgb(12, 33, 51);"/>
    <path class="st1" d="M 112.456 147.121 C 113.056 147.121 113.556 147.621 113.556 148.221 C 113.556 148.821 113.056 149.321 112.456 149.321 C 111.856 149.321 111.356 148.821 111.356 148.221 C 111.356 147.621 111.856 147.121 112.456 147.121 M 112.456 146.021 C 111.156 146.021 110.156 147.021 110.156 148.321 C 110.156 149.621 111.156 150.621 112.456 150.621 C 113.756 150.621 114.756 149.621 114.756 148.321 C 114.756 147.021 113.756 146.021 112.456 146.021 Z" style="fill: rgb(220, 255, 30);"/>
    <circle class="st1" cx="84.456" cy="164.421" r="2.3" style="fill: rgb(255, 255, 255);"/>
    <circle class="st1" cx="112.456" cy="164.421" r="2.3" style="fill: rgb(255, 255, 255);"/>
  </g>
</svg>